HIERARCHY
ROOT SpineBase
{
  OFFSET 0.000000 0.000000 0.000000
  CHANNELS 6 Xposition Yposition Zposition Zrotation Xrotation Yrotation
  JOINT SpineMid
  {
    OFFSET -0.000000 32.641611 0.000000
    CHANNELS 3 Zrotation Xrotation Yrotation
    JOINT SpineShoulder
    {
      OFFSET 0.171044 24.323593 -0.601494
      CHANNELS 3 Zrotation Xrotation Yrotation
      JOINT Neck
      {
        OFFSET 0.187993 8.036304 -0.425473
        CHANNELS 3 Zrotation Xrotation Yrotation
        JOINT Head
        {
          OFFSET 0.898758 11.195902 5.978002
          CHANNELS 3 Zrotation Xrotation Yrotation
          End Site
          {
            OFFSET 0 0 0
          }
        }
      }
      JOINT ShoulderLeft
      {
        OFFSET 0.654785 -5.344106 -10.949771
        CHANNELS 3 Zrotation Xrotation Yrotation
        JOINT ElbowLeft
        {
          OFFSET 0.055332 -23.577965 -4.056424
          CHANNELS 3 Zrotation Xrotation Yrotation
          JOINT WristLeft
          {
            OFFSET 5.730801 -22.201893 1.268775
            CHANNELS 3 Zrotation Xrotation Yrotation
            JOINT HandLeft
            {
              OFFSET -0.680610 -5.654860 1.097161
              CHANNELS 3 Zrotation Xrotation Yrotation
              JOINT HandTipLeft
              {
                OFFSET 1.766094 -6.691288 1.060440
                CHANNELS 3 Zrotation Xrotation Yrotation
                End Site
                {
                  OFFSET 0 0 0
                }
              }
              JOINT ThumbLeft
              {
                OFFSET -0.245988 0.066877 -2.092693
                CHANNELS 3 Zrotation Xrotation Yrotation
                End Site
                {
                  OFFSET 0 0 0
                }
              }
            }
          }
        }
      }
      JOINT ShoulderRight
      {
        OFFSET -2.088769 -4.706513 -12.824632
        CHANNELS 3 Zrotation Xrotation Yrotation
        JOINT ElbowRight
        {
          OFFSET 3.374256 -23.991960 -2.551421
          CHANNELS 3 Zrotation Xrotation Yrotation
          JOINT WristRight
          {
            OFFSET 9.386744 -3.532307 20.835338
            CHANNELS 3 Zrotation Xrotation Yrotation
            JOINT HandRight
            {
              OFFSET -0.910814 -2.911886 1.220566
              CHANNELS 3 Zrotation Xrotation Yrotation
              JOINT HandTipRight
              {
                OFFSET 1.621139 0.817325 2.222533
                CHANNELS 3 Zrotation Xrotation Yrotation
                End Site
                {
                  OFFSET 0 0 0
                }
              }
              JOINT ThumbRight
              {
                OFFSET 0.963069 5.021345 1.288544
                CHANNELS 3 Zrotation Xrotation Yrotation
                End Site
                {
                  OFFSET 0 0 0
                }
              }
            }
          }
        }
      }
    }
  }
  JOINT HipLeft
  {
    OFFSET 4.211104 1.483929 -5.318945
    CHANNELS 3 Zrotation Xrotation Yrotation
    JOINT KneeLeft
    {
      OFFSET -9.270532 -35.652755 5.237490
      CHANNELS 3 Zrotation Xrotation Yrotation
      JOINT AnkleLeft
      {
        OFFSET -15.641220 -26.454188 1.692175
        CHANNELS 3 Zrotation Xrotation Yrotation
        JOINT FootLeft
        {
          OFFSET -3.446712 -3.220322 3.511550
          CHANNELS 3 Zrotation Xrotation Yrotation
          End Site
          {
            OFFSET 0 0 0
          }
        }
      }
    }
  }
  JOINT HipRight
  {
    OFFSET -2.690759 -0.354493 -1.484911
    CHANNELS 3 Zrotation Xrotation Yrotation
    JOINT KneeRight
    {
      OFFSET 4.807439 -30.771287 21.696446
      CHANNELS 3 Zrotation Xrotation Yrotation
      JOINT AnkleRight
      {
        OFFSET -8.020920 -25.869177 7.138052
        CHANNELS 3 Zrotation Xrotation Yrotation
        JOINT FootRight
        {
          OFFSET -3.653283 -3.878228 4.793066
          CHANNELS 3 Zrotation Xrotation Yrotation
          End Site
          {
            OFFSET 0 0 0
          }
        }
      }
    }
  }
}
MOTION
Frames: 8
Frame Time: 0.033333
-114.977462 63.891690 330.688849 0.557868 1.602158 -157.245202 0.524693 0.660671 157.237734 0.360352 -0.086440 0.020489 -0.115048 2.953008 -0.625593 0.000000 0.000000 0.000000 -0.690189 -0.703257 -0.024315 -0.253092 1.281824 0.319635 4.237484 4.013779 -0.279754 -2.973853 -7.244908 -0.552438 0.000000 0.000000 0.000000 0.000000 0.000000 0.000000 10.291563 7.987503 -0.659124 -10.207267 -10.119891 0.105973 12.873671 -32.992960 18.194935 -13.215400 36.480522 12.931878 0.000000 0.000000 0.000000 0.000000 0.000000 0.000000 1.134375 1.261526 157.224913 -0.000000 0.000000 0.000000 26.397870 -1.566073 39.407975 0.000000 0.000000 0.000000 2.905788 -0.974665 155.654556 -1.551005 0.335024 -0.087795 43.151725 25.014150 48.343978 0.000000 0.000000 0.000000
-114.778500 63.536972 330.570804 0.810628 1.697098 -156.485473 0.600917 0.559311 156.476300 0.345129 -0.115742 0.022842 -0.102161 2.972472 -0.724124 0.000000 0.000000 0.000000 -0.828274 -0.828348 -0.030446 -0.333381 1.361673 0.336885 4.045709 3.687878 -0.298196 -3.297951 -6.323184 -0.495752 0.000000 0.000000 0.000000 0.000000 0.000000 0.000000 14.667250 10.663510 -1.370333 -14.014161 -14.507269 -0.227308 19.054635 -50.957968 30.334872 -6.488923 49.453262 24.411158 0.000000 0.000000 0.000000 0.000000 0.000000 0.000000 1.935042 0.546699 156.230897 0.747037 -0.420354 0.222042 31.570466 1.592331 45.978029 0.000000 0.000000 0.000000 3.861894 -1.081596 154.380339 -1.217246 0.524147 0.361881 43.186817 23.467295 49.953661 0.000000 0.000000 0.000000
-114.665096 63.259641 330.462687 0.944216 1.764418 -157.074831 0.582908 0.497372 157.065399 0.341696 -0.164899 0.025840 -0.201807 2.943307 -0.741427 0.000000 0.000000 0.000000 -0.943252 -0.913864 -0.036063 -0.453093 1.405612 0.343092 4.056070 3.230650 -0.253649 -3.256933 -5.393882 -0.393104 0.000000 0.000000 0.000000 0.000000 0.000000 0.000000 19.066903 12.652747 -2.267952 -16.949720 -20.107100 -0.241858 24.217223 -58.955356 39.839335 20.259513 35.466275 2.974146 0.000000 0.000000 0.000000 0.000000 0.000000 0.000000 2.103522 0.523531 156.798914 0.790930 -0.458911 0.238975 35.527930 4.584314 51.163351 0.000000 0.000000 0.000000 4.353867 -0.965024 154.733673 -1.116091 0.502245 0.611168 43.179992 22.591229 50.433690 0.000000 0.000000 0.000000
-114.574734 63.107431 330.378096 1.022465 1.812894 -157.741721 0.526945 0.440547 157.732736 0.330340 -0.199733 0.027526 -0.171598 2.771952 -0.802351 0.000000 0.000000 0.000000 -1.032543 -1.005245 -0.040183 -0.492998 1.430154 0.347787 4.237873 3.337979 -0.250632 -4.033932 -5.519635 -0.570278 0.000000 0.000000 0.000000 0.000000 0.000000 0.000000 19.066440 12.637752 -2.261676 -16.862783 -20.462315 0.008118 26.860905 -60.893659 43.081824 25.355393 23.215879 -7.347035 0.000000 0.000000 0.000000 0.000000 0.000000 0.000000 2.395485 0.471216 157.424854 1.018015 -0.463650 0.274703 34.744889 3.948751 50.123948 0.000000 0.000000 0.000000 4.591625 -1.311994 155.250001 -1.084742 -0.044238 0.735037 44.015769 23.412365 51.099115 0.000000 0.000000 0.000000
-114.566362 63.142868 330.342533 0.980831 1.788239 -159.432815 0.397383 0.419794 159.426979 0.312941 -0.214419 0.027827 -0.152022 2.513762 -0.815775 0.000000 0.000000 0.000000 -1.069793 -1.040555 -0.041984 -0.499935 1.472341 0.358585 4.301186 3.183686 -0.230556 -3.711867 -5.965172 -0.644989 0.000000 0.000000 0.000000 0.000000 0.000000 0.000000 16.160227 9.870984 -1.641343 -14.223615 -17.058412 0.624805 23.168039 -60.921897 39.495383 23.089689 33.983411 4.037121 0.000000 0.000000 0.000000 0.000000 0.000000 0.000000 2.498727 0.476942 159.089887 1.193211 -0.456661 0.299426 30.339980 0.641357 44.534899 0.000000 0.000000 0.000000 4.292881 -1.485557 157.118100 -1.143157 -0.912677 0.692113 44.040072 24.925358 48.357474 0.000000 0.000000 0.000000
-114.513739 63.148712 330.273476 1.004698 1.791575 -158.982114 0.378110 0.411865 158.977226 0.282056 -0.264049 0.028505 0.015530 2.595523 -0.918623 0.000000 0.000000 0.000000 -1.082121 -1.006797 -0.043219 -0.342422 1.519713 0.377844 4.053305 2.473472 -0.164000 -3.893575 -5.432768 -0.784216 0.000000 0.000000 0.000000 0.000000 0.000000 0.000000 12.235299 6.605090 -1.024797 -9.805603 -14.760279 1.212152 18.994516 -66.987417 39.141031 32.524186 36.055079 25.101294 0.000000 0.000000 0.000000 0.000000 0.000000 0.000000 2.855713 0.663479 158.679954 1.423132 -0.140566 0.248125 27.796338 -1.097628 41.493935 0.000000 0.000000 0.000000 4.121385 -1.541485 156.798637 -1.110533 -1.409903 0.721985 44.196087 26.233983 46.538659 0.000000 0.000000 0.000000
-114.443748 63.247134 330.130498 1.082423 1.886944 -157.407233 0.446112 0.469349 157.401504 0.272744 -0.322166 0.031237 -0.027562 2.775098 -0.933229 0.000000 0.000000 0.000000 -1.124229 -0.959318 -0.046462 -0.113726 1.548005 0.395041 3.926088 1.648413 -0.042137 -3.825207 -3.196302 -0.460065 0.000000 0.000000 0.000000 0.000000 0.000000 0.000000 10.116136 4.073036 -0.828614 -7.668133 -12.409554 1.243763 4.276175 -64.212785 25.735475 36.001632 27.388402 9.154966 0.000000 0.000000 0.000000 0.000000 0.000000 0.000000 3.444437 0.912821 157.153213 1.744972 0.286484 0.178277 24.721284 -3.079067 37.995021 0.000000 0.000000 0.000000 3.969526 -1.123601 155.433222 -0.769094 -1.502868 0.851149 42.509397 28.397620 37.264707 0.000000 0.000000 0.000000
-114.387371 63.305660 330.121210 1.144976 1.796866 -157.253038 0.458083 0.439314 157.248712 0.256113 -0.369498 0.033950 0.002845 3.012834 -0.978743 0.000000 0.000000 0.000000 -1.149114 -0.844266 -0.049526 0.088123 1.631064 0.425083 3.697042 1.318545 -0.039362 -3.798772 -2.948620 -0.475868 0.000000 0.000000 0.000000 0.000000 0.000000 0.000000 9.144712 2.328882 -0.821271 -6.176823 -12.014184 0.919512 -7.178262 -64.385359 17.612094 43.663451 20.898135 6.007738 0.000000 0.000000 0.000000 0.000000 0.000000 0.000000 3.698466 0.789657 156.990085 1.958166 0.370001 0.186071 22.581929 -4.432624 35.707182 0.000000 0.000000 0.000000 3.833383 -1.264033 155.393983 -0.531584 -1.972607 0.955809 41.770902 29.595183 32.063156 0.000000 0.000000 0.000000
